<svg width="32" height="26" viewBox="0 0 32 26" fill="none" xmlns="http://www.w3.org/2000/svg">
<g clip-path="url(#clip0_51_120)">
<path d="M26.42 2.80797C24.3976 1.82978 22.258 1.13474 20.0579 0.741211C19.7839 1.25339 19.4637 1.94227 19.2429 2.49031C16.8707 2.12158 14.5204 2.12158 12.1919 2.49031C11.9712 1.94239 11.6438 1.25339 11.3672 0.741211C9.1649 1.13492 7.02353 1.83174 5.00018 2.81308C0.973866 9.10278 -0.117639 15.2361 0.428053 21.2826C3.09857 23.3441 5.68657 24.5965 8.23097 25.416C8.86332 24.517 9.4223 23.5653 9.90214 22.5707C8.98859 22.2111 8.10789 21.7681 7.27053 21.2467C7.49089 21.0779 7.70606 20.9019 7.91572 20.7191C12.9898 23.1725 18.5031 23.1725 23.5167 20.7191C23.7273 20.9007 23.9424 21.0766 24.1618 21.2467C23.3231 21.7694 22.4408 22.2134 21.5254 22.5733C22.008 23.572 22.5659 24.5246 23.1965 25.4185C25.7434 24.5991 28.3338 23.3467 31.0043 21.2826C31.6447 14.2732 29.9105 8.19623 26.42 2.80797ZM10.5935 17.5641C9.07023 17.5641 7.82104 16.0941 7.82104 14.304C7.82104 12.5139 9.04361 11.0414 10.5935 11.0414C12.1435 11.0414 13.3925 12.5113 13.3659 14.304C13.3683 16.0941 12.1435 17.5641 10.5935 17.5641ZM20.8389 17.5641C19.3156 17.5641 18.0666 16.0941 18.0666 14.304C18.0666 12.5139 19.289 11.0414 20.8389 11.0414C22.3889 11.0414 23.6379 12.5113 23.6113 14.304C23.6113 16.0941 22.3889 17.5641 20.8389 17.5641Z" fill="#794CFF"/>
</g>
<defs>
<clipPath id="clip0_51_120">
<rect width="30.8382" height="24.7807" fill="white" transform="translate(0.297119 0.741211)"/>
</clipPath>
</defs>
</svg>
