<svg width="27" height="27" viewBox="0 0 27 27" fill="none" xmlns="http://www.w3.org/2000/svg">
<path d="M22.2525 22.5113H4.7477C4.07533 22.4994 3.43489 22.2217 2.96681 21.7389C2.49874 21.256 2.2412 20.6074 2.25023 19.935V7.07623C2.2412 6.40381 2.49874 5.75524 2.96681 5.27241C3.43489 4.78958 4.07533 4.51184 4.7477 4.5H22.2525C22.9249 4.51184 23.5653 4.78958 24.0334 5.27241C24.5014 5.75524 24.7593 6.40381 24.7502 7.07623V19.935C24.7593 20.6074 24.5014 21.256 24.0334 21.7389C23.5653 22.2217 22.9249 22.4994 22.2525 22.5113V22.5113Z" stroke="#424361" stroke-width="2" stroke-miterlimit="10"/>
<path d="M2.25012 9L13.5001 13.5L24.7501 9" stroke="#424361" stroke-width="2" stroke-linejoin="round"/>
</svg>
