<svg width="31" height="31" viewBox="0 0 31 31" fill="none" xmlns="http://www.w3.org/2000/svg">
<path d="M15.581 0C13.5561 0 11.5511 0.408729 9.68034 1.20285C7.80961 1.99697 6.10982 3.16093 4.67802 4.62828C1.78637 7.59171 0.161865 11.611 0.161865 15.8019C0.161865 22.7864 4.58715 28.7121 10.7085 30.8138C11.4795 30.9402 11.7262 30.4503 11.7262 30.0237V27.3531C7.45511 28.3013 6.54538 25.2357 6.54538 25.2357C5.8361 23.4027 4.83386 22.9128 4.83386 22.9128C3.43072 21.9331 4.94179 21.9647 4.94179 21.9647C6.4837 22.0753 7.30092 23.5923 7.30092 23.5923C8.64238 25.9942 10.909 25.2831 11.7879 24.9038C11.9267 23.8767 12.3275 23.1814 12.7593 22.7864C9.33624 22.3913 5.74359 21.0324 5.74359 15.0118C5.74359 13.2578 6.32951 11.8514 7.33176 10.7295C7.17756 10.3345 6.6379 8.69106 7.48595 6.5578C7.48595 6.5578 8.78115 6.13115 11.7262 8.1696C12.9443 7.82196 14.2704 7.64813 15.581 7.64813C16.8916 7.64813 18.2177 7.82196 19.4358 8.1696C22.3808 6.13115 23.676 6.5578 23.676 6.5578C24.5241 8.69106 23.9844 10.3345 23.8302 10.7295C24.8325 11.8514 25.4184 13.2578 25.4184 15.0118C25.4184 21.0482 21.8103 22.3755 18.3718 22.7706C18.9269 23.2604 19.4358 24.2244 19.4358 25.6939V30.0237C19.4358 30.4503 19.6825 30.956 20.4688 30.8138C26.5902 28.6963 31.0001 22.7864 31.0001 15.8019C31.0001 13.7268 30.6013 11.672 29.8264 9.75479C29.0515 7.83761 27.9157 6.09562 26.4839 4.62828C25.0521 3.16093 23.3524 1.99697 21.4816 1.20285C19.6109 0.408729 17.6059 0 15.581 0Z" fill="black"/>
</svg>
