<svg width="134" height="37" viewBox="0 0 134 37" fill="none" xmlns="http://www.w3.org/2000/svg">
<path d="M47.9339 18.1098C47.3929 17.5782 46.7701 17.155 46.0628 16.8402C45.3555 16.5255 44.5928 16.3695 43.7747 16.3695H37.2588C36.438 16.3695 35.6674 16.5255 34.9417 16.8402C34.2186 17.155 33.5904 17.5782 33.0573 18.1098C32.5242 18.6415 32.102 19.2657 31.7879 19.9824C31.4739 20.6992 31.3182 21.4663 31.3182 22.2862V24.8518C31.3182 25.6717 31.4739 26.4414 31.7879 27.1555C32.102 27.8723 32.5242 28.4965 33.0573 29.0281C33.5904 29.5598 34.2159 29.983 34.9417 30.2977C35.6648 30.6125 36.438 30.7685 37.2588 30.7685H43.7747C44.5955 30.7685 45.3582 30.6125 46.0628 30.2977C46.7701 29.983 47.3929 29.5598 47.9339 29.0281C48.4749 28.4965 48.8972 27.8723 49.2033 27.1555C49.5095 26.4387 49.6625 25.6717 49.6625 24.8518V22.2862C49.6625 21.4663 49.5095 20.6992 49.2033 19.9824C48.8972 19.2657 48.4749 18.6415 47.9339 18.1098ZM46.7094 24.8518C46.7094 25.2697 46.6302 25.6585 46.4745 26.0182C46.3162 26.3753 46.1024 26.6847 45.8332 26.9466C45.564 27.2084 45.2473 27.4227 44.891 27.5893C44.5321 27.7559 44.1547 27.8379 43.7536 27.8379H37.235C36.8154 27.8379 36.4275 27.7559 36.0686 27.5893C35.7096 27.4227 35.3956 27.2084 35.1264 26.9466C34.8546 26.6847 34.6461 26.3753 34.4983 26.0182C34.3505 25.6611 34.2766 25.2723 34.2766 24.8518V22.2862C34.2766 21.8683 34.3505 21.4821 34.4983 21.133C34.6461 20.7839 34.8546 20.4744 35.1264 20.2046C35.3956 19.9348 35.7123 19.7259 36.0686 19.5751C36.4248 19.427 36.8154 19.3529 37.235 19.3529H43.7536C44.1547 19.3529 44.5348 19.427 44.891 19.5751C45.2473 19.7232 45.564 19.9322 45.8332 20.2046C46.105 20.4744 46.3188 20.7839 46.4745 21.133C46.6302 21.4821 46.7094 21.8656 46.7094 22.2862V24.8518Z" fill="#131614"/>
<path d="M56.6112 12.9893H53.6581V16.3669H51.4122V19.353H53.6581V30.7686H56.6112V19.353H59.092V16.3669H56.6112V12.9893Z" fill="#131614"/>
<path d="M76.7765 18.1098C76.2355 17.5782 75.6127 17.155 74.9054 16.8402C74.1981 16.5255 73.4354 16.3695 72.6173 16.3695H66.104C65.2833 16.3695 64.5126 16.5255 63.7869 16.8402C63.0638 17.155 62.4357 17.5782 61.9026 18.1098C61.3695 18.6415 60.9472 19.2657 60.6332 19.9824C60.3191 20.6992 60.1634 21.4663 60.1634 22.2862V24.8518C60.1634 25.6717 60.3191 26.4414 60.6332 27.1555C60.9472 27.8723 61.3695 28.4965 61.9026 29.0281C62.4357 29.5598 63.0611 29.983 63.7869 30.2977C64.51 30.6125 65.2833 30.7685 66.104 30.7685H72.6199C73.4407 30.7685 74.2034 30.6125 74.9081 30.2977C75.6153 29.983 76.2382 29.5598 76.7792 29.0281C77.3202 28.4965 77.7424 27.8723 78.0486 27.1555C78.3547 26.4387 78.5078 25.6717 78.5078 24.8518V22.2862C78.5078 21.4663 78.3547 20.6992 78.0486 19.9824C77.7424 19.2657 77.3175 18.6415 76.7765 18.1098ZM75.552 24.8518C75.552 25.2697 75.4728 25.6585 75.3171 26.0182C75.1588 26.3753 74.945 26.6847 74.6758 26.9466C74.4066 27.2084 74.0899 27.4227 73.7337 27.5893C73.3747 27.7559 72.9973 27.8379 72.5962 27.8379H66.0776C65.658 27.8379 65.2701 27.7559 64.9112 27.5893C64.5522 27.4227 64.2382 27.2084 63.969 26.9466C63.6972 26.6847 63.4887 26.3753 63.3409 26.0182C63.1931 25.6611 63.1192 25.2723 63.1192 24.8518V22.2862C63.1192 21.8683 63.1931 21.4821 63.3409 21.133C63.4887 20.7839 63.6972 20.4744 63.969 20.2046C64.2382 19.9348 64.5549 19.7259 64.9112 19.5751C65.2674 19.427 65.658 19.3529 66.0776 19.3529H72.5962C72.9973 19.3529 73.3774 19.427 73.7337 19.5751C74.0899 19.7232 74.4066 19.9322 74.6758 20.2046C74.9476 20.4744 75.1614 20.7839 75.3171 21.133C75.4728 21.4821 75.552 21.8656 75.552 22.2862V24.8518Z" fill="#131614"/>
<path d="M96.6779 18.1363C96.1475 17.6046 95.522 17.1815 94.7989 16.8667C94.0784 16.552 93.3078 16.3959 92.4897 16.3959H85.9923C85.1741 16.3959 84.4141 16.552 83.7094 16.8667C83.0048 17.1815 82.382 17.6046 81.8436 18.1363C81.3052 18.6679 80.883 19.2921 80.5768 20.0089C80.2733 20.7257 80.1203 21.4927 80.1203 22.3126V34.1223H83.0998V30.0121C83.2898 30.1337 83.4983 30.2395 83.7253 30.3268C84.4378 30.6416 85.2005 30.7976 86.016 30.7976H92.5003C93.3157 30.7976 94.0837 30.6416 94.8042 30.3268C95.5247 30.0121 96.1501 29.5889 96.6779 29.0572C97.2084 28.5256 97.628 27.9014 97.9421 27.1846C98.2535 26.4678 98.4118 25.7008 98.4118 24.8809V22.3153C98.4118 21.4953 98.2561 20.7283 97.9421 20.0115C97.6307 19.2921 97.2084 18.6679 96.6779 18.1363ZM95.4613 24.8782C95.4613 25.2961 95.3874 25.6823 95.2396 26.0314C95.0918 26.3806 94.8834 26.69 94.6142 26.9598C94.345 27.2296 94.0309 27.4412 93.6747 27.5893C93.3184 27.7374 92.9304 27.8115 92.5135 27.8115H86.0213C85.6201 27.8115 85.2427 27.7374 84.8865 27.5893C84.5302 27.4412 84.2161 27.2322 83.947 26.9598C83.6778 26.69 83.464 26.3806 83.3083 26.0314C83.2027 25.804 83.1341 25.5686 83.0998 25.3252V24.7486H83.0734V22.3126C83.0734 21.8947 83.15 21.5059 83.3083 21.1462C83.464 20.7892 83.6778 20.4797 83.947 20.2178C84.2161 19.956 84.5302 19.7418 84.8865 19.5778C85.2427 19.4111 85.6201 19.3291 86.0213 19.3291H92.5135C92.9304 19.3291 93.3184 19.4111 93.6747 19.5778C94.0309 19.7444 94.345 19.9586 94.6142 20.2178C94.8834 20.4797 95.0918 20.7892 95.2396 21.1462C95.3874 21.5033 95.4613 21.8921 95.4613 22.3126V24.8782Z" fill="#131614"/>
<path d="M111.895 27.785H105.284C104.656 27.785 104.131 27.5761 103.703 27.1555C103.276 26.7376 103.062 26.2139 103.062 25.5844V16.3933H100.109V25.5844C100.109 26.3012 100.243 26.973 100.513 27.5999C100.782 28.2294 101.149 28.7742 101.611 29.2371C102.072 29.7 102.621 30.0702 103.257 30.3506C103.893 30.631 104.569 30.7685 105.282 30.7685H111.892V31.763C111.892 32.3925 111.673 32.9241 111.241 33.3606C110.805 33.797 110.283 34.0139 109.673 34.0139H100.373V37H109.673C110.388 37 111.053 36.8598 111.673 36.5821C112.294 36.3017 112.84 35.9314 113.315 35.4686C113.79 35.0057 114.162 34.4609 114.437 33.8314C114.708 33.2019 114.846 32.5142 114.846 31.763V16.3933L111.892 16.4197V27.785H111.895Z" fill="#131614"/>
<path d="M133.541 19.9824C133.235 19.2657 132.812 18.6441 132.274 18.1098C131.733 17.5782 131.11 17.155 130.406 16.8402C129.701 16.5255 128.938 16.3695 128.12 16.3695H122.164C121.346 16.3695 120.575 16.5255 119.852 16.8402C119.129 17.155 118.501 17.5782 117.97 18.1098C117.44 18.6415 117.017 19.2657 116.703 19.9824C116.389 20.6992 116.234 21.4663 116.234 22.2862V24.8518C116.234 25.6717 116.389 26.4414 116.703 27.1555C117.017 27.8723 117.44 28.4965 117.97 29.0281C118.501 29.5598 119.129 29.983 119.852 30.2977C120.575 30.6125 121.346 30.7685 122.164 30.7685H128.12C128.938 30.7685 129.696 30.6125 130.392 30.2977C130.601 30.2104 130.809 30.1046 131.02 29.983V30.7685H133.974V25.4522C133.989 25.2591 134 25.0581 134 24.8491V22.2835C133.997 21.4663 133.844 20.6966 133.541 19.9824ZM131.073 24.7989H131.02V25.4548C130.968 25.6638 130.907 25.8569 130.838 26.0314C130.68 26.3806 130.466 26.6847 130.197 26.9466C129.928 27.2084 129.611 27.4227 129.255 27.5893C128.896 27.7559 128.519 27.8379 128.115 27.8379H122.145C121.726 27.8379 121.338 27.7559 120.979 27.5893C120.62 27.4227 120.306 27.2084 120.037 26.9466C119.767 26.6847 119.556 26.3753 119.408 26.0182C119.261 25.6611 119.187 25.2723 119.187 24.8518V22.2862C119.187 21.8683 119.261 21.4821 119.408 21.133C119.556 20.7839 119.767 20.4744 120.037 20.2046C120.308 19.9348 120.622 19.7259 120.979 19.5751C121.338 19.427 121.726 19.3529 122.145 19.3529H128.115C128.516 19.3529 128.896 19.427 129.255 19.5751C129.611 19.7232 129.928 19.9322 130.197 20.2046C130.466 20.4744 130.68 20.7839 130.838 21.133C130.997 21.4821 131.073 21.8656 131.073 22.2862V24.7989Z" fill="#131614"/>
<path d="M25.557 17.6392C25.5016 17.6392 25.4488 17.6418 25.396 17.6445C25.1215 17.663 24.8418 17.6445 24.5832 17.5466C23.5566 17.1525 22.8282 16.1554 22.8334 14.9863C22.8414 13.476 21.572 12.2699 20.065 12.2699H12.5674C11.8152 12.2699 11.1343 12.5768 10.6408 13.0687C10.1526 13.558 9.8491 14.2325 9.84382 14.9757C9.83327 16.4886 11.1581 17.7265 12.6703 17.7265H20.0888C21.6036 17.7265 22.8334 18.959 22.8334 20.4772V25.9099C22.8334 27.4281 21.6036 28.6606 20.0888 28.6606H8.18911C6.67427 28.6606 5.44445 27.4281 5.44445 25.9099V2.8328C5.44445 1.31989 4.20936 -0.0105171 2.69979 6.26732e-05C1.95557 0.00535255 1.2826 0.312171 0.797008 0.79884C0.303497 1.29344 0 1.97584 0 2.72964V25.9337C0 27.1292 0.73103 28.2348 1.86056 28.621C2.1667 28.7241 2.46492 28.7691 2.75258 28.7664C3.4968 28.7585 4.23575 29.0045 4.73717 29.5546C5.18054 30.0413 5.44973 30.692 5.44709 31.4061C5.43917 32.9111 6.69011 34.1225 8.19175 34.1225H20.0914C21.5825 34.1225 22.8414 32.9005 22.8361 31.4061C22.8308 30.2767 23.5091 29.3087 24.4802 28.8881C24.7626 28.7665 25.074 28.7426 25.3802 28.7638C25.4409 28.7691 25.4989 28.7691 25.5596 28.7691C26.3118 28.7691 26.9927 28.4623 27.4862 27.9703C27.9797 27.4757 28.2832 26.7933 28.2832 26.0395V20.3688C28.2805 18.8611 27.0613 17.6392 25.557 17.6392Z" fill="url(#paint0_linear_24_2660)"/>
<defs>
<linearGradient id="paint0_linear_24_2660" x1="32.1888" y1="-11.6745" x2="-4.34695" y2="40.84" gradientUnits="userSpaceOnUse">
<stop offset="0.2121" stop-color="#2152FF"/>
<stop offset="0.5827" stop-color="#21C0FF"/>
<stop offset="0.8014" stop-color="#40EA4F"/>
</linearGradient>
</defs>
</svg>
