<svg width="31" height="26" viewBox="0 0 31 26" fill="none" xmlns="http://www.w3.org/2000/svg">
<path d="M3.65742 5.77401C3.67631 5.58631 3.651 5.39679 3.58353 5.22061C3.51606 5.04444 3.40829 4.8865 3.26885 4.75943L0.388562 1.26392V0.741211H9.32857L16.2394 16.0138L22.3145 0.741211H30.8382V1.26392L28.3758 3.64001C28.2715 3.72057 28.191 3.82795 28.1429 3.9507C28.0948 4.07345 28.081 4.20695 28.1029 4.33695V21.813C28.081 21.943 28.0948 22.0765 28.1429 22.1992C28.191 22.322 28.2715 22.4294 28.3758 22.5099L30.7812 24.8876V25.4118H18.6864V24.8891L21.1782 22.4529C21.4233 22.2062 21.4233 22.1337 21.4233 21.7575V7.63047L14.4971 25.3532H13.5627L5.49846 7.63047V19.5094C5.43216 20.0074 5.59714 20.5116 5.94561 20.8724L9.18517 24.832V25.3532H0V24.832L3.23801 20.8724C3.40934 20.6936 3.53649 20.4773 3.60931 20.2406C3.68213 20.0039 3.69861 19.7535 3.65742 19.5094V5.77401Z" fill="black"/>
</svg>
