<svg width="32" height="31" viewBox="0 0 32 31" fill="none" xmlns="http://www.w3.org/2000/svg">
<g clip-path="url(#clip0_51_124)">
<path d="M16.1486 30.8382C24.6644 30.8382 31.5677 23.9349 31.5677 15.4191C31.5677 6.90337 24.6644 0 16.1486 0C7.63287 0 0.729492 6.90337 0.729492 15.4191C0.729492 23.9349 7.63287 30.8382 16.1486 30.8382Z" fill="#FF4500"/>
<path d="M26.4059 15.5661C26.4059 14.3162 25.3951 13.3235 24.1633 13.3235C23.5814 13.3227 23.0216 13.5466 22.6009 13.9485C21.0568 12.8455 18.9427 12.1287 16.5898 12.0368L17.619 7.22063L20.9646 7.93738C21.0016 8.78302 21.6999 9.46327 22.5641 9.46327C23.4464 9.46327 24.1633 8.74652 24.1633 7.86378C24.1633 6.98152 23.4465 6.26465 22.5641 6.26465C21.9392 6.26465 21.3875 6.6323 21.1301 7.16546L17.3987 6.37499C17.2884 6.35644 17.178 6.37499 17.1044 6.43016C17.0125 6.48533 16.9575 6.57713 16.9393 6.68747L15.7992 12.055C13.4096 12.1287 11.2588 12.8455 9.69639 13.967C9.27557 13.5651 8.71579 13.3412 8.13387 13.342C6.88384 13.342 5.89124 14.3528 5.89124 15.5847C5.89124 16.5037 6.44259 17.2756 7.21487 17.6252C7.17737 17.8499 7.15891 18.0774 7.1597 18.3053C7.1597 21.7609 11.1855 24.5736 16.1487 24.5736C21.112 24.5736 25.1378 21.7794 25.1378 18.3053C25.1377 18.0775 25.1192 17.85 25.0826 17.6252C25.8545 17.2756 26.4059 16.4851 26.4059 15.5661ZM11.0015 17.1652C11.0015 16.283 11.7182 15.5661 12.601 15.5661C13.4832 15.5661 14.2001 16.2829 14.2001 17.1652C14.2001 18.0476 13.4833 18.7647 12.601 18.7647C11.7183 18.7828 11.0015 18.0476 11.0015 17.1652ZM19.9538 21.4116C18.8509 22.5147 16.7552 22.5883 16.1487 22.5883C15.5237 22.5883 13.4282 22.4962 12.3433 21.4116C12.1781 21.2462 12.1781 20.9888 12.3433 20.8234C12.5088 20.6583 12.7661 20.6583 12.9316 20.8234C13.6303 21.5221 15.1009 21.7609 16.1487 21.7609C17.1966 21.7609 18.6854 21.522 19.3655 20.8234C19.531 20.6583 19.7883 20.6583 19.9538 20.8234C20.1008 20.9888 20.1008 21.2462 19.9538 21.4116ZM19.6595 18.7829C18.7772 18.7829 18.0604 18.0662 18.0604 17.1838C18.0604 16.3014 18.7772 15.5847 19.6595 15.5847C20.5422 15.5847 21.2589 16.3014 21.2589 17.1838C21.2589 18.0475 20.5422 18.7829 19.6595 18.7829Z" fill="white"/>
</g>
<defs>
<clipPath id="clip0_51_124">
<rect width="30.8382" height="30.8382" fill="white" transform="translate(0.729492)"/>
</clipPath>
</defs>
</svg>
