<svg width="32" height="31" viewBox="0 0 32 31" fill="none" xmlns="http://www.w3.org/2000/svg">
<g clip-path="url(#clip0_51_130)">
<path d="M15.8515 0C11.763 0 7.83837 1.62551 4.94969 4.51612C2.05804 7.40787 0.433174 11.3296 0.432373 15.4191C0.432373 19.5069 2.05861 23.4315 4.94969 26.3221C7.83837 29.2127 11.763 30.8382 15.8515 30.8382C19.94 30.8382 23.8646 29.2127 26.7533 26.3221C29.6444 23.4315 31.2706 19.5069 31.2706 15.4191C31.2706 11.3314 29.6444 7.40672 26.7533 4.51612C23.8646 1.62551 19.94 0 15.8515 0Z" fill="url(#paint0_linear_51_130)"/>
<path d="M7.41191 15.2563C11.9075 13.298 14.9046 12.0069 16.4032 11.3832C20.6868 9.60202 21.5758 9.29268 22.1564 9.2822C22.2841 9.28015 22.5684 9.31171 22.7539 9.46168C22.9081 9.58817 22.9515 9.75922 22.9732 9.87933C22.9924 9.99931 23.019 10.2728 22.9973 10.4862C22.766 12.9244 21.7613 18.841 21.2506 21.5718C21.0361 22.7273 20.6097 23.1147 20.1977 23.1525C19.3015 23.2349 18.6221 22.5608 17.7548 21.9925C16.3984 21.1028 15.6322 20.5491 14.3144 19.6811C12.7917 18.6779 13.7795 18.1264 14.6468 17.2253C14.8733 16.9895 18.8196 13.4009 18.8943 13.0754C18.904 13.0347 18.9136 12.8829 18.8221 12.8029C18.7329 12.7227 18.6004 12.7502 18.504 12.7719C18.3667 12.8027 16.2008 14.2357 11.9991 17.0707C11.3847 17.4932 10.8282 17.6992 10.3271 17.6884C9.77778 17.6766 8.71772 17.3771 7.9299 17.1213C6.9662 16.8073 6.19765 16.6413 6.26511 16.1082C6.29884 15.8306 6.68191 15.5466 7.41191 15.2563Z" fill="white"/>
</g>
<defs>
<linearGradient id="paint0_linear_51_130" x1="15.8515" y1="0" x2="15.8515" y2="30.8382" gradientUnits="userSpaceOnUse">
<stop stop-color="#2AABEE"/>
<stop offset="1" stop-color="#229ED9"/>
</linearGradient>
<clipPath id="clip0_51_130">
<rect width="30.8382" height="30.8382" fill="white" transform="translate(0.432373)"/>
</clipPath>
</defs>
</svg>
