<svg width="32" height="31" viewBox="0 0 32 31" fill="none" xmlns="http://www.w3.org/2000/svg">
<path d="M29.7242 7.70956C28.7348 8.15929 27.6683 8.45482 26.5633 8.59616C27.694 7.91515 28.5677 6.83581 28.9789 5.53804C27.9124 6.1805 26.7303 6.63022 25.4839 6.88721C24.4688 5.78217 23.0426 5.13971 21.4235 5.13971C18.404 5.13971 15.9369 7.60677 15.9369 10.652C15.9369 11.0889 15.9883 11.5129 16.0783 11.9113C11.5039 11.68 7.43069 9.48276 4.7195 6.1548C4.24408 6.96431 3.97424 7.91515 3.97424 8.91739C3.97424 10.8319 4.93794 12.528 6.42845 13.4917C5.51615 13.4917 4.6681 13.2347 3.92284 12.8493V12.8878C3.92284 15.5605 5.82454 17.7962 8.34299 18.2974C7.53442 18.5186 6.68556 18.5494 5.86308 18.3873C6.21208 19.4827 6.89557 20.4411 7.81748 21.128C8.73939 21.8148 9.85336 22.1954 11.0028 22.2164C9.05437 23.7589 6.63917 24.5926 4.15413 24.5806C3.71726 24.5806 3.28038 24.555 2.84351 24.5036C5.28487 26.0712 8.1888 26.9835 11.2983 26.9835C21.4235 26.9835 26.9873 18.58 26.9873 11.2945C26.9873 11.0504 26.9873 10.8191 26.9744 10.5749C28.0538 9.80399 28.9789 8.82745 29.7242 7.70956Z" fill="#32CBFF"/>
</svg>
